<svg xmlns="http://www.w3.org/2000/svg" height="40" viewBox="0 -960 960 960" width="40"><path d="M194.985-110.173q-34.985 0-59.898-24.914-24.914-24.913-24.914-59.898v-570.03q0-35.14 24.914-60.164 24.913-25.025 59.898-25.025h570.03q13.915 0 29.675 6.504 15.76 6.504 24.478 14.214l-67.139 67.138v-2.667H194.985v570.03h570.03v-312.697l85.189-85.189v397.886q0 34.985-25.025 59.898-25.024 24.914-60.164 24.914h-570.03Zm269.783-280.081 358.558-358.558q10.649-10.464 24.551-10.464 13.903 0 24.789 10.985 10.523 10.986 10.523 24.883 0 13.898-10.253 23.972L495.37-321.87q-13.136 12.703-30.652 12.703-17.515 0-30.218-12.703L268.384-487.986q-10.819-10.485-10.819-24.449 0-13.964 10.986-24.783 10.985-10.818 24.511-10.818 13.525 0 24.618 10.796l147.088 146.986Z"/></svg>